<svg version="1.1" xmlns="http://www.w3.org/2000/svg" width="1334" height="1334">
<path d="M0 0 C68.82452505 -1.74386466 137.13969695 34.92238181 187 80 C189.13210791 82.05608461 191.21455523 84.14446562 193.2734375 86.2734375 C194.96341959 87.96341959 196.71867384 89.48107713 198.5625 91 C201.6900375 93.62965597 204.29368692 96.50872038 206.93359375 99.62109375 C208.96990101 101.96534918 211.07944394 104.22830052 213.20996094 106.48681641 C267.2383797 163.95839058 300.36498957 241.50009617 313.375 318.625 C313.49669556 319.3381134 313.61839111 320.05122681 313.74377441 320.78594971 C317.29046784 341.84589075 318.3838183 362.78709941 318.3125 384.125 C318.31034485 385.29009094 318.3081897 386.45518188 318.30596924 387.65557861 C318.25471651 404.9437472 317.86672115 421.91300258 315 439 C314.80132324 440.2159082 314.60264648 441.43181641 314.39794922 442.68457031 C310.17265693 467.87174339 304.38304336 492.55795585 293.16308594 515.60253906 C280.06333503 540.3865557 280.06333503 540.3865557 280.08349609 567.26904297 C284.09010659 577.10690889 288.5572079 586.65994201 293.25 596.1875 C294.01084171 597.74136823 294.77133636 599.29540645 295.53149414 600.84960938 C297.67979287 605.23696666 299.83874344 609.61901532 302 614 C302.52770996 615.0720166 303.05541992 616.1440332 303.59912109 617.24853516 C307.86270221 625.89777234 312.23161357 634.48116643 316.75 643 C325.71507313 659.90248657 334.28571514 677.04757071 342.33618164 694.40429688 C343.74329037 697.42700055 345.14633829 700.21950743 347 703 C347 703.99 347 704.98 347 706 C339.51913574 705.5315696 332.67243814 704.04474358 325.48828125 701.953125 C324.40670242 701.64377014 323.3251236 701.33441528 322.21076965 701.01568604 C310.12015041 697.51946412 298.14325372 693.67911679 286.1875 689.75 C285.0582309 689.38038147 283.92896179 689.01076294 282.76547241 688.62994385 C265.58197808 682.99502131 248.67409964 677.00870212 232 670 C229.4700284 668.950113 226.93891299 667.90306305 224.40698242 666.85791016 C223.01133262 666.27913997 221.61790241 665.69495801 220.2277832 665.10302734 C208.24853269 660.05147776 198.86565123 659.52609805 186.7109375 664.28515625 C174.57065413 669.67549337 164.21321417 678.04044861 153.7746582 686.10571289 C139.18489903 697.31729301 123.41641359 705.75318731 107 714 C106.24074219 714.38430176 105.48148438 714.76860352 104.69921875 715.16455078 C48.12931303 743.59381463 -17.70891238 755.05724325 -80.625 751.25 C-81.69031952 751.18564758 -81.69031952 751.18564758 -82.77716064 751.11999512 C-130.95846125 748.12030806 -177.4195483 735.62082706 -221 715 C-221.8235498 714.61086426 -222.64709961 714.22172852 -223.49560547 713.82080078 C-262.72373969 695.12213341 -297.03049392 668.87654202 -327.78704834 638.38717651 C-329.20475365 636.98233577 -330.62600176 635.58107306 -332.04736328 634.17993164 C-338.13732105 628.09708448 -343.63781721 621.72687659 -349 615 C-350.06047188 613.72919297 -351.12505669 612.46179691 -352.1953125 611.19921875 C-402.34484673 551.40004255 -434.78401049 471.22442981 -437 393 C-437.02191406 392.23751953 -437.04382813 391.47503906 -437.06640625 390.68945312 C-438.27770784 339.93591665 -427.48515744 286.61371976 -397 245 C-396.24332031 243.95972656 -395.48664063 242.91945313 -394.70703125 241.84765625 C-377.4279324 218.53618869 -355.66182155 199.49025339 -329.92822266 186.01318359 C-328.04834062 185.02540055 -326.18655462 184.00866437 -324.32421875 182.98828125 C-292.62757449 165.99828101 -254.77058668 157.99639517 -219 157 C-225.30294414 164.66574287 -232.24369952 171.88308884 -239.8125 178.3125 C-245.68169499 183.31714552 -251.00614796 188.92367827 -256.42163086 194.40795898 C-257.81832394 195.81675026 -259.22850104 197.21214526 -260.640625 198.60546875 C-301.05717668 239.62425382 -324.60592105 304.14582352 -326 361 C-326.0306958 362.0832959 -326.0306958 362.0832959 -326.06201172 363.18847656 C-327.16325183 407.00145084 -317.01330731 449.63884276 -298 489 C-297.62004883 489.78729492 -297.24009766 490.57458984 -296.84863281 491.38574219 C-287.98139689 509.50313446 -276.74686686 526.38002982 -264 542 C-263.57106445 542.53044922 -263.14212891 543.06089844 -262.70019531 543.60742188 C-250.96272045 558.03916142 -237.80980381 571.71001503 -223 583 C-222.02417969 583.78117188 -221.04835938 584.56234375 -220.04296875 585.3671875 C-178.53846251 618.43317981 -125.20962055 639.22275559 -72 641 C-70.78280273 641.04084717 -70.78280273 641.04084717 -69.54101562 641.08251953 C3.30762159 643.16728075 76.86353439 616.01516273 130 566 C139.53565668 556.94613352 148.25641575 547.63662191 156 537 C156.39380859 536.46165527 156.78761719 535.92331055 157.19335938 535.36865234 C173.50953065 512.88267259 185.41291696 488.38481945 194 462 C194.29245605 461.10458496 194.58491211 460.20916992 194.88623047 459.28662109 C201.43770185 438.82919809 205.27814812 417.39942256 207 396 C207.08459473 395.0102417 207.08459473 395.0102417 207.17089844 394.00048828 C212.89382896 324.7665744 196.85843491 253.72834197 168 191 C167.54399414 189.99904297 167.08798828 188.99808594 166.61816406 187.96679688 C138.05089198 125.57760005 97.15388301 74.51288747 40.92578125 35.4765625 C27.70136849 26.28396768 14.74076676 17.08346515 3 6 C2.41476562 5.48308594 1.82953125 4.96617187 1.2265625 4.43359375 C0 3 0 3 0 0 Z " fill="#0A848C" transform="translate(793,293)"/>
<path d="M0 0 C1.56548584 0.00223572 1.56548584 0.00223572 3.16259766 0.0045166 C20.47697132 0.04876004 37.40124424 0.88092522 54.5625 3.3125 C55.56893555 3.44640137 56.57537109 3.58030273 57.61230469 3.71826172 C120.16468144 12.19210586 182.05986341 37.62477227 232.5625 75.3125 C233.14386719 75.74369141 233.72523438 76.17488281 234.32421875 76.61914062 C250.23135448 88.4675907 265.05971632 101.62219611 279.07641602 115.64111328 C280.62173066 117.1842353 282.17490446 118.71914306 283.72851562 120.25390625 C290.12475945 126.61420399 295.96272862 133.22776473 301.5625 140.3125 C302.57502635 141.54422043 303.5902559 142.77372878 304.609375 144 C360.539543 212.18259808 392.09241656 306.67407951 383.79077148 395.04003906 C378.57235382 443.37982512 358.2976008 488.30512493 324.97265625 523.69140625 C322.55157597 526.26017935 322.55157597 526.26017935 320.47265625 528.94921875 C318.74025107 531.09258304 317.03795609 532.79275402 314.9375 534.5625 C312.71843566 536.44890753 310.53478836 538.33869734 308.41796875 540.33984375 C274.19615398 572.57947504 224.42849727 592.7599025 177.5 592.375 C176.44361328 592.37048828 175.38722656 592.36597656 174.29882812 592.36132812 C171.71999092 592.34965918 169.14127706 592.33328885 166.5625 592.3125 C168.42509331 588.21392257 171.17409341 585.69334365 174.5 582.75 C178.91117787 578.77091748 183.20319498 574.73023367 187.375 570.5 C190.37489844 567.46542065 193.3834497 564.52476705 196.625 561.75 C240.58484313 523.65146929 263.91480746 460.72469461 270.5625 404.3125 C270.69527344 403.20390625 270.82804688 402.0953125 270.96484375 400.953125 C277.59354072 332.30524957 253.43171102 260.92710763 209.8828125 208.05078125 C199.01010124 194.97299293 187.68561629 182.22349303 174.37890625 171.578125 C172.61381551 170.15821844 170.8679783 168.71365795 169.15234375 167.234375 C119.23632164 124.51701852 51.74682582 105.52159907 -13.10205078 109.53955078 C-82.90718547 115.0192007 -152.1351167 146.45495892 -198.9296875 199.1171875 C-201.16835228 201.80199189 -203.31727909 204.53324062 -205.4375 207.3125 C-205.85563965 207.85422852 -206.2737793 208.39595703 -206.70458984 208.95410156 C-218.05129424 223.71599426 -227.5374719 239.46225015 -235.4375 256.3125 C-236.00855469 257.50230469 -236.57960938 258.69210937 -237.16796875 259.91796875 C-250.11942068 287.62615926 -257.10290391 318.01050526 -260.4375 348.3125 C-260.5317627 349.12146729 -260.62602539 349.93043457 -260.72314453 350.76391602 C-263.57135559 379.02948108 -262.80522907 409.27261362 -258.4375 437.3125 C-258.33804077 437.95346619 -258.23858154 438.59443237 -258.1361084 439.25482178 C-251.63438021 480.79698142 -239.77043848 520.99574636 -222.4375 559.3125 C-222.08768066 560.10027832 -221.73786133 560.88805664 -221.37744141 561.69970703 C-208.97241414 589.59715286 -192.86651081 616.00567968 -174.4375 640.3125 C-173.94765625 640.95928711 -173.4578125 641.60607422 -172.953125 642.27246094 C-167.79768843 649.03897144 -162.47869284 655.58286208 -156.703125 661.8359375 C-155.45468222 663.2006146 -154.21412882 664.57321438 -153.01074219 665.9777832 C-148.15159495 671.64848056 -142.9655929 676.97057094 -137.68701172 682.24829102 C-136.19856763 683.73891615 -134.71832723 685.23737017 -133.23828125 686.73632812 C-126.96855509 693.04350917 -120.44948003 698.8239601 -113.4375 704.3125 C-112.33365967 705.18128784 -112.33365967 705.18128784 -111.20751953 706.06762695 C-109.19000894 707.6420083 -107.16117463 709.19985129 -105.125 710.75 C-104.39917725 711.30365234 -103.67335449 711.85730469 -102.92553711 712.42773438 C-96.81806496 717.06500058 -90.60380627 721.53503827 -84.34179688 725.95996094 C-78.36428983 730.20552363 -72.43847497 734.52403293 -66.49951172 738.82324219 C-64.61904479 740.18138193 -62.73445556 741.53349109 -60.84765625 742.8828125 C-59.84605469 743.60210938 -58.84445312 744.32140625 -57.8125 745.0625 C-56.95398438 745.67609375 -56.09546875 746.2896875 -55.2109375 746.921875 C-54.62570312 747.38078125 -54.04046875 747.8396875 -53.4375 748.3125 C-53.4375 748.6425 -53.4375 748.9725 -53.4375 749.3125 C-62.1957748 748.79531049 -70.60786954 747.4971341 -79.1875 745.6875 C-80.44812256 745.42316162 -81.70874512 745.15882324 -83.00756836 744.88647461 C-95.01158705 742.30042414 -106.74930941 739.06524405 -118.4375 735.3125 C-119.29601562 735.03825195 -120.15453125 734.76400391 -121.0390625 734.48144531 C-175.64258964 716.7944669 -223.54908019 685.39261431 -263.95141602 644.98388672 C-265.49673066 643.4407647 -267.04990446 641.90585694 -268.60351562 640.37109375 C-275.00019931 634.01023053 -280.83002515 627.39159093 -286.4375 620.3125 C-287.4137958 619.13844445 -288.39367615 617.96734954 -289.37890625 616.80078125 C-340.98698356 554.71253238 -373.32245939 468.56607505 -373.640625 387.83984375 C-373.64632507 386.67787979 -373.65202515 385.51591583 -373.65789795 384.31874084 C-373.66728809 381.8673695 -373.6738579 379.41598587 -373.67773438 376.96459961 C-373.68733846 373.31144536 -373.71837853 369.65887971 -373.75 366.00585938 C-373.84468011 345.02327616 -372.17802671 324.23459797 -368.125 303.625 C-367.91190186 302.51946777 -367.69880371 301.41393555 -367.47924805 300.27490234 C-361.59391074 270.44137563 -352.34885154 241.86427001 -339.4375 214.3125 C-338.80207275 212.9510083 -338.80207275 212.9510083 -338.15380859 211.56201172 C-326.25411986 186.32607912 -311.32226196 162.73948666 -293.4375 141.3125 C-292.59832031 140.30058594 -291.75914062 139.28867187 -290.89453125 138.24609375 C-281.97076901 127.54938805 -272.57658288 117.37139466 -262.75 107.5 C-262.0492334 106.79456055 -261.3484668 106.08912109 -260.62646484 105.36230469 C-256.05949571 100.80930182 -251.34811542 96.49152775 -246.4375 92.3125 C-245.48145874 91.49640259 -245.48145874 91.49640259 -244.50610352 90.66381836 C-176.14154159 32.73198691 -89.81611592 -0.31964309 0 0 Z " fill="#12636C" transform="translate(567.4375,288.6875)"/>
<path d="M0 0 C0.95108643 0.48259277 1.90217285 0.96518555 2.88208008 1.46240234 C17.49048837 9.06585547 31.51197323 18.33127263 43.8125 29.3125 C44.30008789 29.7465918 44.78767578 30.18068359 45.29003906 30.62792969 C48.84607376 33.80589941 52.33906045 37.04453152 55.8125 40.3125 C56.52148438 40.96734375 57.23046875 41.6221875 57.9609375 42.296875 C63.76361212 47.83902137 68.61013625 54.11666884 73.44091797 60.50097656 C74.31713638 61.65824616 75.19848456 62.81166133 76.08642578 63.95996094 C101.25728628 96.59514569 116.79014396 140.31715705 117.015625 181.640625 C117.02263931 182.50365738 117.02965363 183.36668976 117.03688049 184.25587463 C117.05428751 187.02480343 117.06073244 189.7935185 117.0625 192.5625 C117.06317474 193.50757416 117.06384949 194.45264832 117.06454468 195.42636108 C117.04917863 208.94690284 116.72208385 222.05897973 113.8125 235.3125 C113.63557617 236.16424805 113.45865234 237.01599609 113.27636719 237.89355469 C103.20359731 285.85664025 78.48963758 329.69735152 39.8125 360.3125 C38.34683594 361.50359375 38.34683594 361.50359375 36.8515625 362.71875 C24.35137626 372.66852041 10.83430798 380.54015986 -3.5 387.5625 C-4.97702393 388.29811157 -4.97702393 388.29811157 -6.48388672 389.04858398 C-7.41346191 389.49145752 -8.34303711 389.93433105 -9.30078125 390.390625 C-10.53501831 390.98472168 -10.53501831 390.98472168 -11.79418945 391.59082031 C-19.57731397 393.93774636 -30.74356505 386.64319039 -37.5625 383.06689453 C-72.59229409 363.9526258 -101.09037595 336.87779432 -121.1875 302.3125 C-121.54150879 301.70760742 -121.89551758 301.10271484 -122.26025391 300.47949219 C-150.5809024 251.49314289 -155.984656 190.63125078 -142.1875 136.3125 C-129.43239367 90.27943459 -102.93747087 48.69637892 -64.1875 20.3125 C-63.12917969 19.53261719 -62.07085938 18.75273437 -60.98046875 17.94921875 C-52.74139358 12.06706768 -44.13858729 7.02392243 -35.1875 2.3125 C-34.44822266 1.92046387 -33.70894531 1.52842773 -32.94726562 1.12451172 C-30.70663319 -0.04821414 -28.45153972 -1.18572328 -26.1875 -2.3125 C-25.1651123 -2.84532593 -25.1651123 -2.84532593 -24.12207031 -3.38891602 C-15.18634709 -7.69619678 -8.25223096 -4.23505704 0 0 Z " fill="#0C7B84" transform="translate(669.1875,472.6875)"/>
</svg>
